<svg width="32" height="32" viewBox="0 0 32 32" fill="none" xmlns="http://www.w3.org/2000/svg">
<rect width="32" height="32" rx="16" fill="#4529E6"/>
<path d="M12.1186 21V10.8182H15.7479C16.5367 10.8182 17.1913 10.9541 17.7116 11.2259C18.2353 11.4976 18.6264 11.8738 18.8849 12.3544C19.1435 12.8317 19.2727 13.3835 19.2727 14.0099C19.2727 14.633 19.1418 15.1816 18.88 15.6555C18.6214 16.1262 18.2304 16.4924 17.7067 16.7543C17.1863 17.0161 16.5317 17.147 15.7429 17.147H12.9936V15.8246H15.6037C16.1009 15.8246 16.5052 15.7533 16.8168 15.6108C17.1316 15.4683 17.362 15.2611 17.5078 14.9893C17.6536 14.7176 17.7266 14.3911 17.7266 14.0099C17.7266 13.6255 17.652 13.2924 17.5028 13.0107C17.357 12.7289 17.1267 12.5135 16.8118 12.3643C16.5002 12.2119 16.0909 12.1357 15.5838 12.1357H13.6548V21H12.1186ZM17.1449 16.4062L19.6605 21H17.9105L15.4446 16.4062H17.1449Z" fill="white"/>
</svg>
